<svg id="Group_6433" data-name="Group 6433" xmlns="http://www.w3.org/2000/svg" width="36" height="36" viewBox="0 0 36 36">
  <rect id="Rectangle_3406" data-name="Rectangle 3406" width="36" height="36" rx="2" fill="#ffbe00"/>
  <path id="Union_89" data-name="Union 89" d="M6.174,18A6.192,6.192,0,0,1,0,11.823V6.176A6.192,6.192,0,0,1,6.174,0h5.65A6.2,6.2,0,0,1,18,6.176v5.647A6.2,6.2,0,0,1,11.824,18ZM4.236,9A4.764,4.764,0,1,0,9,4.236,4.769,4.769,0,0,0,4.236,9Zm9.295-5.278a.529.529,0,0,0,0,.747.536.536,0,0,0,.373.154.521.521,0,0,0,.371-.154.527.527,0,0,0-.371-.9A.54.54,0,0,0,13.531,3.722ZM5.291,9A3.709,3.709,0,1,1,9,12.709,3.713,3.713,0,0,1,5.291,9Z" transform="translate(9 9)"/>
</svg>
