<svg xmlns="http://www.w3.org/2000/svg" width="37" height="36" viewBox="0 0 37 36">
  <g id="Group_6434" data-name="Group 6434" transform="translate(0.402)">
    <rect id="Rectangle_3406" data-name="Rectangle 3406" width="37" height="36" rx="2" transform="translate(-0.402)" fill="#ffbe00"/>
    <path id="Union_90" data-name="Union 90" d="M14.271,18V12.149c0-1.395-.028-3.183-1.94-3.183-1.941,0-2.238,1.515-2.238,3.082V18H6.367V5.982h3.58V7.621H10a3.919,3.919,0,0,1,3.53-1.94C17.3,5.681,18,8.168,18,11.4V18H14.271ZM.3,18V5.982H4.029V18ZM0,2.161A2.161,2.161,0,1,1,2.161,4.343,2.162,2.162,0,0,1,0,2.161Z" transform="translate(8.598 9)"/>
  </g>
</svg>
