<svg xmlns="http://www.w3.org/2000/svg" width="36" height="36" viewBox="0 0 36 36">
  <g id="Group_6435" data-name="Group 6435" transform="translate(-0.194)">
    <rect id="Rectangle_3406" data-name="Rectangle 3406" width="36" height="36" rx="2" transform="translate(0.194)" fill="#ffbe00"/>
    <path id="Path_5333" data-name="Path 5333" d="M18.134,49.744a7.751,7.751,0,0,1-2.142.587,3.7,3.7,0,0,0,1.635-2.055,7.43,7.43,0,0,1-2.357.9,3.717,3.717,0,0,0-6.431,2.542,3.828,3.828,0,0,0,.086.848,10.523,10.523,0,0,1-7.663-3.889,3.719,3.719,0,0,0,1.142,4.969,3.671,3.671,0,0,1-1.68-.458v.041A3.735,3.735,0,0,0,3.7,56.882,3.71,3.71,0,0,1,2.729,57a3.287,3.287,0,0,1-.7-.063A3.753,3.753,0,0,0,5.5,59.531,7.47,7.47,0,0,1,.89,61.117,6.963,6.963,0,0,1,0,61.066a10.466,10.466,0,0,0,5.7,1.668A10.508,10.508,0,0,0,16.285,52.155c0-.164-.006-.323-.014-.481A7.417,7.417,0,0,0,18.134,49.744Z" transform="translate(9.067 -37.119)"/>
  </g>
</svg>
